<svg viewBox="-108 1 511 511.99988" xmlns="http://www.w3.org/2000/svg"><path d="m187.464844 500.058594-32.402344-13.367188c-8.496094-3.503906-13.96875-11.324218-13.96875-19.957031v-9.105469l6.234375-18.011718c42.988281-73.84375 59.394531-236.9375 63.128906-280.894532.507813-5.972656-4.207031-11.097656-10.203125-11.097656h-163.554687c-5.996094 0-10.710938 5.121094-10.203125 11.097656 3.734375 43.957032 20.140625 207.050782 63.128906 280.894532l6.234375 18.011718v9.105469c0 8.632813-5.476563 16.453125-13.972656 19.957031l-32.402344 13.367188c-3.261719 1.34375-5.367187 4.351562-5.367187 7.667968 0 2.359376 2.0625 4.273438 4.605468 4.273438h139.507813c2.542969 0 4.601562-1.914062 4.601562-4.273438 0-3.316406-2.101562-6.324218-5.367187-7.667968zm0 0" fill="#dfede7"/><path d="m147.328125 439.617188c42.988281-73.84375 59.394531-236.9375 63.125-280.894532.507813-5.972656-4.207031-11.097656-10.199219-11.097656h-40.175781c-4.347656 49.347656-22.40625 220.035156-64.296875 291.992188l-3.078125 8.898437 3.15625 9.113281v9.105469c0 3.914063-1.136719 7.652344-3.15625 10.90625 2.4375 3.925781 6.171875 7.136719 10.816406 9.054687l32.402344 13.363282c3.261719 1.34375 5.367187 4.351562 5.367187 7.667968 0 2.359376-2.0625 4.273438-4.601562 4.273438h51.542969c2.542969 0 4.601562-1.914062 4.601562-4.273438 0-3.316406-2.101562-6.324218-5.367187-7.667968l-32.402344-13.363282c-8.496094-3.503906-13.972656-11.328124-13.972656-19.960937v-9.105469zm0 0" fill="#d7e0dc"/><path d="m207.417969 100.574219c.34375-1.703125.527343-3.460938.527343-5.261719 0-14.632812-11.90625-26.539062-26.539062-26.539062-7.421875 0-14.136719 3.066406-18.957031 7.996093-4.507813-3.535156-10.183594-5.652343-16.34375-5.652343-2.625 0-5.15625.390624-7.550781 1.101562 1.183593-3.007812 1.84375-6.277344 1.84375-9.699219 0-14.632812-11.90625-26.539062-26.539063-26.539062-12.660156 0-23.273437 8.914062-25.90625 20.796875-3.792969-2.097656-8.152344-3.296875-12.789063-3.296875-14.632812 0-26.539062 11.90625-26.539062 26.539062 0 .15625.011719.308594.015625.464844-10.246094 1.9375-18.421875 9.773437-20.855469 19.835937-.25-.007812-.5-.019531-.75-.019531-14.632812 0-26.535156 11.902344-26.535156 26.535157 0 14.632812 11.902344 26.539062 26.535156 26.539062h176.609375c14.632813 0 26.539063-11.90625 26.539063-26.539062 0-13.351563-9.914063-24.425782-22.765625-26.261719zm0 0" fill="#f3e8d7"/><path d="m207.417969 100.574219c.601562-2.984375.707031-6.144531.207031-9.394531-1.800781-11.679688-11.375-20.886719-23.113281-22.226563-8.640625-.988281-16.578125 2.210937-22.0625 7.816406-4.511719-3.535156-10.183594-5.652343-16.34375-5.652343-2.625 0-5.160157.390624-7.554688 1.101562 1.402344-3.554688 2.066407-7.476562 1.777344-11.585938-.917969-13.046874-11.464844-23.636718-24.507813-24.578124-13.515624-.980469-25.097656 8.234374-27.867187 20.722656-2.386719-1.320313-4.992187-2.28125-7.753906-2.8125.378906 6.15625 2.957031 10.382812 6.3125 13.433594 6.8125 6.199218 16.328125 6.25 25.191406 3.738281 12.691406-3.597657 26.648437 7.796875 34.765625 23.65625 1.675781 3.273437 4.382812 5.929687 7.820312 7.238281 9.996094 3.804688 17.121094 13.488281 17.121094 24.804688 0 14.636718-11.902344 26.539062-26.539062 26.539062h58.210937c14.75 0 27.253907-12.070312 27.097657-26.820312-.140626-13.226563-10-24.15625-22.761719-25.980469zm0 0" fill="#e5d8c6"/><path d="m29.367188 188.566406c6.871093 64.585938 24.226562 189.160156 60.257812 251.050782l4.207031 12.152343c.738281-.152343 1.503907-.234375 2.289063-.234375h44.707031c.785156 0 1.550781.082032 2.292969.234375l4.207031-12.152343c36.03125-61.890626 53.382813-186.464844 60.253906-251.050782zm0 0" fill="#ef50ab"/><g fill="#e5d8c6"><path d="m207.320312 191.027344c-.09375.875-.191406 1.765625-.289062 2.660156.097656-.898438.195312-1.785156.289062-2.660156zm0 0"/><path d="m207.375 190.503906c-.015625.175782-.035156.347656-.054688.523438.019532-.175782.039063-.347656.054688-.523438zm0 0"/><path d="m207.578125 188.617188c.003906-.015626.003906-.035157.007813-.050782h-.003907c-.066406.640625-.136719 1.285156-.207031 1.9375.070312-.628906.136719-1.265625.203125-1.886718zm0 0"/><path d="m207.03125 193.6875c-.019531.164062-.035156.324219-.054688.488281.019532-.164062.035157-.324219.054688-.488281zm0 0"/><path d="m206.246094 200.6875c.125-1.097656.25-2.179688.367187-3.25-.121093 1.070312-.242187 2.152344-.367187 3.25zm0 0"/><path d="m206.976562 194.175781c-.089843.816407-.183593 1.648438-.277343 2.480469.097656-.832031.1875-1.664062.277343-2.480469zm0 0"/><path d="m206.699219 196.65625c-.027344.261719-.054688.519531-.085938.78125.03125-.261719.058594-.519531.085938-.78125zm0 0"/></g><path d="m155.910156 188.566406c-8.105468 71.0625-26.382812 193.085938-60.128906 251.050782l-3.078125 8.898437.917969 2.648437.207031.605469c.742187-.152343 1.507813-.234375 2.292969-.234375h44.707031c.785156 0 1.550781.082032 2.289063.234375l4.207031-12.152343c.625-1.070313 1.242187-2.164063 1.855469-3.269532.195312-.359375.390624-.726562.585937-1.085937.417969-.765625.832031-1.53125 1.242187-2.3125.222657-.425781.445313-.859375.667969-1.289063.386719-.746094.769531-1.496094 1.148438-2.257812.21875-.4375.441406-.878906.65625-1.320313.398437-.808593.792969-1.625 1.183593-2.445312.1875-.398438.378907-.789063.566407-1.191407.515625-1.09375 1.027343-2.203124 1.53125-3.320312.058593-.132812.121093-.261719.179687-.394531.566406-1.261719 1.128906-2.539063 1.683594-3.832031.15625-.367188.3125-.738282.46875-1.105469.398438-.933594.792969-1.871094 1.1875-2.820313.191406-.464844.378906-.933594.570312-1.398437.359376-.882813.714844-1.765625 1.070313-2.660157.1875-.480468.378906-.960937.570313-1.445312.363281-.929688.722656-1.867188 1.078124-2.808594.167969-.4375.335938-.875.503907-1.316406.4375-1.167969.875-2.351562 1.308593-3.539062.078126-.210938.15625-.421876.230469-.632813.519531-1.425781 1.027344-2.867187 1.535157-4.316406.105468-.304688.210937-.613281.316406-.917969.390625-1.136719.78125-2.273438 1.167968-3.421875.15625-.460937.308594-.925781.464844-1.390625.335938-1.015625.675782-2.039062 1.007813-3.066406.160156-.492188.316406-.984375.476562-1.476563.335938-1.050781.667969-2.101562 1-3.160156.140625-.449219.28125-.894531.421875-1.347656.394532-1.265625.78125-2.535157 1.167969-3.816407.070313-.234374.140625-.472656.214844-.707031.46875-1.5625.929687-3.132812 1.386719-4.710937.054687-.183594.105468-.367188.160156-.550782.390625-1.359374.78125-2.726562 1.167968-4.097656.121094-.429687.238282-.863281.359376-1.292968.320312-1.148438.636718-2.296876.949218-3.449219.128906-.476563.261719-.953125.390625-1.433594.308594-1.15625.617188-2.3125.925781-3.476563.113282-.4375.230469-.875.34375-1.3125.351563-1.339843.695313-2.6875 1.039063-4.035156.066406-.246094.128906-.492187.191406-.738281.824219-3.257813 1.632813-6.539063 2.417969-9.832031.09375-.386719.183594-.773438.273438-1.160156.296874-1.242188.589843-2.492188.878906-3.742188.109375-.464844.21875-.929688.324218-1.394531.277344-1.214844.554688-2.429688.828126-3.644531.101562-.441407.199218-.878907.296874-1.316407.304688-1.359375.605469-2.71875.902344-4.078125.0625-.277344.121094-.550781.183594-.828125.726562-3.347656 1.4375-6.699219 2.125-10.054687.070312-.328125.132812-.660156.203125-.988282.269531-1.320312.539063-2.640624.800781-3.960937.089844-.445313.179688-.886719.269532-1.332031.246093-1.234375.488281-2.46875.726562-3.703125.089844-.445313.175781-.890625.261719-1.335938.257812-1.316406.507812-2.636719.757812-3.953125.0625-.324218.125-.652344.1875-.976562.628907-3.339844 1.242188-6.671875 1.835938-9.992188.054687-.292968.105469-.582031.15625-.875.238281-1.335937.476562-2.671875.707031-4.003906.078125-.441406.15625-.882812.234375-1.324219.203125-1.195312.410156-2.386719.613281-3.574219.082032-.472656.160156-.945312.242188-1.414062.207031-1.226562.410156-2.445312.613281-3.664062.0625-.386719.128906-.777344.195313-1.167969.261718-1.589844.523437-3.175781.777343-4.753907 0-.003906 0-.007812 0-.007812.261719-1.625.519531-3.238281.773438-4.847656.054687-.347656.105469-.691406.160156-1.039063.191406-1.21875.382813-2.433593.566406-3.644531.078125-.5.152344-.996094.230469-1.492188.160156-1.054687.320312-2.109374.476562-3.15625.082032-.542968.164063-1.085937.242188-1.625.15625-1.03125.304688-2.054687.457031-3.078124.074219-.511719.148438-1.023438.222657-1.53125.171874-1.171876.339843-2.335938.503906-3.5.050781-.335938.101562-.679688.148437-1.015626.210938-1.46875.414063-2.933593.617188-4.382812.066406-.476562.128906-.945312.195312-1.417969.136719-.980469.273438-1.960937.402344-2.933593.082031-.605469.164063-1.203126.246094-1.804688.113281-.835938.222656-1.667969.335937-2.492188.082032-.636718.167969-1.269531.25-1.902343.105469-.78125.207032-1.554688.304688-2.328125.085937-.648438.171875-1.300782.253906-1.945313.09375-.726562.1875-1.445312.277344-2.164062.085937-.664063.171875-1.335938.253906-1.996094.085938-.671875.167969-1.335937.253906-2.003906.167969-1.347657.332032-2.683594.496094-4.007813.0625-.53125.128906-1.066406.195312-1.59375.09375-.777344.183594-1.542968.277344-2.308594.058594-.503906.117188-1.003906.179688-1.503906.089844-.785156.183594-1.5625.273437-2.339844.050781-.433593.101563-.871093.152344-1.304687.097656-.820313.191406-1.640625.285156-2.445313.035157-.292968.066407-.582031.097657-.871093.484374-4.21875.929687-8.257813 1.335937-12.082031 0-.015626.003906-.035157.003906-.050782zm0 0" fill="#dd3ca7"/><path d="m140.828125 476.78125h-44.707031c-6.191406 0-11.214844-5.019531-11.214844-11.214844v-2.8125c0-6.195312 5.023438-11.21875 11.214844-11.21875h44.707031c6.195313 0 11.21875 5.023438 11.21875 11.21875v2.8125c0 6.195313-5.023437 11.214844-11.21875 11.214844zm0 0" fill="#dfede7"/><path d="m110.832031 230.011719v99.800781c0 4.222656 3.421875 7.644531 7.644531 7.644531 4.21875 0 7.644532-3.421875 7.644532-7.644531v-99.800781c0-4.222657-3.421875-7.644531-7.644532-7.644531-4.222656 0-7.644531 3.421874-7.644531 7.644531zm0 0" fill="#dd3ca7"/><path d="m165.925781 222.367188c-4.222656 0-7.644531 3.421874-7.644531 7.644531 0 32.445312-6.851562 75.613281-10.9375 98.457031-.742188 4.152344 2.019531 8.125 6.179688 8.867188.453124.082031.90625.121093 1.351562.121093 3.632812 0 6.855469-2.597656 7.515625-6.300781 5.101563-28.511719 11.179687-69.203125 11.179687-101.144531 0-4.222657-3.421874-7.644531-7.644531-7.644531zm0 0" fill="#ef50ab"/><path d="m71.023438 222.367188c4.222656 0 7.644531 3.421874 7.644531 7.644531 0 32.445312 6.855469 75.613281 10.941406 98.457031.742187 4.152344-2.023437 8.125-6.179687 8.867188-.457032.082031-.910157.121093-1.355469.121093-3.632813 0-6.855469-2.597656-7.515625-6.300781-5.101563-28.511719-11.179688-69.203125-11.179688-101.144531 0-4.222657 3.421875-7.644531 7.644532-7.644531zm0 0" fill="#dd3ca7"/><path d="m294.941406 6.675781c-.535156-4.191406-4.371094-7.140625-8.550781-6.613281l-71.023437 9.082031c-2.625.335938-4.890626 2.007813-5.988282 4.417969l-79.609375 175.003906h16.796875l74.964844-164.796875 66.800781-8.542969c4.1875-.535156 7.148438-4.367187 6.609375-8.550781zm0 0" fill="#fccf3f"/><path d="m148.394531 147.625-18.625 40.941406h16.796875l18.621094-40.941406zm0 0" fill="#efc03c"/></svg>